<svg width="56" height="52" viewBox="0 0 56 52" fill="none" xmlns="http://www.w3.org/2000/svg">
<path fill-rule="evenodd" clip-rule="evenodd" d="M8.82017 13.0219H8.76043C6.51318 13.0195 4.69187 11.1982 4.68994 8.95092V7.59602C4.69235 5.34926 6.51318 3.52843 8.76043 3.52554H8.82017C11.0674 3.52843 12.8882 5.34926 12.8907 7.59602V8.9514C12.8882 11.1986 11.0674 13.0195 8.82017 13.0219ZM8.76043 5.25289C7.46624 5.25434 6.41826 6.30279 6.41681 7.5965V8.9514C6.41826 10.2451 7.46624 11.2936 8.76043 11.295H8.82017C10.1139 11.2936 11.1623 10.2451 11.1638 8.9514V7.5965C11.1623 6.30279 10.1139 5.25434 8.82017 5.25289H8.76043Z" fill="#586863"/>
<path fill-rule="evenodd" clip-rule="evenodd" d="M13.5802 14.3209H11.8764C11.6567 14.3214 11.4457 14.4052 11.2857 14.5556L8.91415 16.7806L6.638 14.5652C6.47658 14.4086 6.26072 14.3209 6.03571 14.3209H4.22693C3.0397 14.3209 1.90741 14.8201 1.10661 15.696C0.30581 16.5725 -0.0897711 17.7453 0.0171947 18.9277V28.8369C0.0171947 30.2993 1.20249 31.4846 2.66484 31.4855H2.69616C3.05078 31.4817 3.40107 31.4046 3.72486 31.2591L4.17971 49.1783C4.21874 50.2807 4.90197 51.2574 5.92441 51.6717C6.94685 52.0856 8.11721 51.8606 8.91271 51.096C9.70917 51.8616 10.8819 52.0866 11.9053 51.6698C12.9287 51.253 13.6105 50.273 13.6462 49.1691L14.1006 31.2735C14.9192 31.6229 15.8583 31.5376 16.6008 31.0471C17.3433 30.5561 17.7904 29.7259 17.7904 28.8355V18.9281C17.8969 17.7457 17.5018 16.573 16.701 15.6965C15.8997 14.8201 14.7674 14.3209 13.5802 14.3209ZM10.8482 50.1492C10.256 50.1487 9.77614 49.6688 9.77566 49.0771V31.1271H8.04879V49.0771C8.04831 49.6596 7.58286 50.1352 7.00033 50.1482C6.4178 50.1612 5.93164 49.7068 5.90514 49.1248L5.39102 28.8726H12.4344L11.9198 49.1152C11.901 49.6929 11.4259 50.1511 10.8482 50.1492ZM16.063 18.8867C16.063 18.8578 16.0645 18.8284 16.0674 18.7995C16.1387 18.0965 15.9089 17.3959 15.4352 16.8717C14.9611 16.3475 14.2875 16.0483 13.5811 16.0483H12.2185L9.49475 18.6039C9.48981 18.6085 9.48435 18.613 9.4791 18.6173C9.47564 18.6201 9.47228 18.6229 9.46922 18.6256C9.46537 18.6289 9.46151 18.6322 9.45766 18.6354C9.4538 18.6387 9.44995 18.6419 9.44609 18.6453C9.38586 18.694 9.31937 18.734 9.24854 18.7653C9.24722 18.7657 9.2459 18.7665 9.24453 18.7672C9.24291 18.7681 9.24122 18.7691 9.23939 18.7696C9.23746 18.7706 9.23553 18.7711 9.2336 18.7717C9.23264 18.7719 9.23168 18.7722 9.23071 18.7725C9.19409 18.7879 9.15651 18.8005 9.11845 18.8106L9.11459 18.8115C9.07942 18.8202 9.04328 18.8265 9.00714 18.8308L8.98113 18.8337C8.94451 18.8371 8.90789 18.838 8.87127 18.8371C8.86936 18.8369 8.86751 18.8367 8.86571 18.8364C8.8625 18.836 8.85942 18.8356 8.85633 18.8356C8.82357 18.8337 8.7908 18.8303 8.75852 18.8245L8.73298 18.8202C8.69637 18.813 8.66071 18.8033 8.62554 18.7918C8.62457 18.7915 8.62364 18.7912 8.62274 18.7909C8.62051 18.79 8.61844 18.7891 8.61638 18.7884C8.58362 18.7764 8.55134 18.7629 8.52002 18.747C8.5128 18.7436 8.50607 18.7402 8.49934 18.7369L8.4993 18.7369C8.46557 18.719 8.43281 18.6988 8.40149 18.6766C8.39908 18.6752 8.39715 18.6733 8.39522 18.6718C8.36631 18.6506 8.33933 18.628 8.31331 18.6034C8.31138 18.6017 8.30945 18.6002 8.30757 18.5988C8.30521 18.5971 8.30292 18.5954 8.30079 18.5933L5.68542 16.0483H4.22741C3.52057 16.0483 2.84697 16.3475 2.37285 16.8717C1.89873 17.3959 1.6689 18.0965 1.74021 18.8C1.7431 18.8289 1.74455 18.8578 1.74455 18.8872V28.8374C1.74455 29.0841 1.84332 29.3197 2.01823 29.4932C2.19361 29.6662 2.43067 29.762 2.67689 29.7592C3.19485 29.7375 3.60007 29.3058 3.58851 28.7873V22.1766H5.31538V26.2823H5.32598L5.34766 27.1457H12.4773L12.4884 26.7063V22.1761H14.2152V26.3256H14.2253L14.2152 26.7265V28.8355C14.221 29.3414 14.633 29.749 15.1389 29.749C15.6453 29.749 16.0573 29.3414 16.063 28.8355V18.8867Z" fill="#586863"/>
<path fill-rule="evenodd" clip-rule="evenodd" d="M47.0128 13.0219H46.9526C44.7053 13.0195 42.8845 11.1982 42.8821 8.95092V7.59602C42.8845 5.34926 44.7053 3.52843 46.9526 3.52554H47.0128C49.2596 3.52843 51.0804 5.34926 51.0833 7.59602V8.9514C51.0804 11.1986 49.2596 13.0195 47.0128 13.0219ZM46.9526 5.25289C45.6589 5.25434 44.6104 6.30279 44.609 7.5965V8.9514C44.6104 10.2451 45.6589 11.2936 46.9526 11.295H47.0128C48.3065 11.2936 49.355 10.2451 49.3564 8.9514V7.5965C49.355 6.30279 48.3065 5.25434 47.0128 5.25289H46.9526Z" fill="#586863"/>
<path fill-rule="evenodd" clip-rule="evenodd" d="M51.7728 14.3209H50.0686C49.8488 14.3214 49.6378 14.4052 49.4778 14.5556L47.1063 16.7802L44.8301 14.5652C44.6687 14.4086 44.4529 14.3209 44.2278 14.3209H42.4191C41.2318 14.3209 40.0995 14.8201 39.2983 15.696C38.4975 16.5725 38.1024 17.7453 38.2088 18.9277V28.8369C38.2093 30.2993 39.3946 31.4846 40.857 31.4855H40.8878C41.2424 31.4812 41.5927 31.4041 41.916 31.2591L42.3709 49.1778C42.4099 50.2802 43.0931 51.2569 44.1156 51.6713C45.138 52.0856 46.3084 51.8601 47.1039 51.096C47.9008 51.8616 49.0731 52.0861 50.0965 51.6693C51.1199 51.253 51.8022 50.273 51.8374 49.1686L52.2917 31.2735C53.1103 31.6224 54.0494 31.5371 54.7919 31.0466C55.5344 30.5556 55.9816 29.7254 55.9816 28.8355V18.9281C56.0885 17.7457 55.6929 16.573 54.8926 15.697C54.0918 14.8206 52.9595 14.3214 51.7728 14.3209ZM49.0403 50.1492C48.4482 50.1487 47.9683 49.6688 47.9678 49.0771V31.1271H46.2409V49.0771C46.2424 49.6606 45.7764 50.1381 45.1929 50.1511C44.6094 50.1641 44.1228 49.7078 44.0977 49.1248L43.5832 28.8726H50.6265L50.1119 49.1152C50.0931 49.6929 49.6185 50.1511 49.0403 50.1492ZM54.2552 18.8867C54.2552 18.8578 54.2566 18.8284 54.2595 18.7995H54.26C54.3313 18.0965 54.1019 17.3959 53.6278 16.8717C53.1542 16.3475 52.4806 16.0483 51.7738 16.0483H50.4111L47.6874 18.6039C47.6832 18.6078 47.6786 18.6115 47.6741 18.6151C47.6698 18.6186 47.6656 18.622 47.6618 18.6256C47.6572 18.6299 47.6526 18.6337 47.648 18.6375C47.6449 18.6401 47.6418 18.6426 47.6387 18.6453C47.5785 18.694 47.512 18.734 47.4412 18.7648C47.4383 18.7662 47.4354 18.7687 47.4325 18.7696C47.4306 18.7705 47.4286 18.7711 47.4266 18.7716C47.4255 18.7719 47.4244 18.7722 47.4233 18.7725C47.3867 18.7879 47.3496 18.8005 47.3111 18.8106C47.3101 18.8111 47.3087 18.8111 47.3072 18.8111C47.272 18.8197 47.2364 18.8265 47.2002 18.8303C47.1916 18.8318 47.1829 18.8327 47.1737 18.8332C47.1376 18.8371 47.101 18.838 47.0644 18.8371C47.0625 18.8369 47.0606 18.8367 47.0588 18.8364C47.0556 18.836 47.0525 18.8356 47.0494 18.8356C47.0167 18.8337 46.9839 18.8298 46.9516 18.8245L46.9261 18.8202C46.8895 18.813 46.8533 18.8033 46.8181 18.7913L46.81 18.7884C46.7767 18.7764 46.7439 18.7629 46.7126 18.747L46.6924 18.7369C46.6582 18.719 46.6254 18.6988 46.5936 18.6766C46.5917 18.6752 46.5898 18.6733 46.5878 18.6718C46.5589 18.6506 46.5315 18.628 46.5054 18.6029C46.5038 18.6014 46.5019 18.6001 46.5001 18.5987C46.4977 18.5969 46.4953 18.5952 46.4934 18.5933L43.8766 16.0483H42.4191C41.7122 16.0483 41.0381 16.3475 40.5645 16.8717C40.0904 17.3959 39.8606 18.0965 39.9319 18.8C39.9348 18.8289 39.9362 18.8578 39.9362 18.8872V28.8374C39.9362 29.0836 40.035 29.3197 40.2104 29.4932C40.3853 29.6662 40.6223 29.762 40.8685 29.7592C41.3865 29.7375 41.7917 29.3058 41.7802 28.7873V22.1761H43.507V26.2818H43.5176L43.5393 27.1452H50.6699L50.681 26.7058V22.1761H52.4078V26.3256H52.418L52.4078 26.7265V28.8355C52.4078 29.3457 52.8212 29.7592 53.3315 29.7592C53.8418 29.7592 54.2552 29.3457 54.2552 28.8355V18.8867Z" fill="#586863"/>
<path fill-rule="evenodd" clip-rule="evenodd" d="M27.9165 13.0219H27.8563C25.609 13.0195 23.7882 11.1982 23.7858 8.95092V7.59602C23.7887 5.34926 25.6095 3.52843 27.8563 3.52554H27.9165C30.1632 3.52843 31.9846 5.34926 31.987 7.59602V8.9514C31.9846 11.1986 30.1632 13.0195 27.9165 13.0219ZM27.8563 5.25289C26.5625 5.25434 25.5141 6.30279 25.5126 7.5965V8.9514C25.5141 10.2451 26.5625 11.2936 27.8563 11.295H27.9165C29.2102 11.2936 30.2586 10.2451 30.2601 8.9514V7.5965C30.2586 6.30279 29.2102 5.25434 27.9165 5.25289H27.8563Z" fill="#586863"/>
<path fill-rule="evenodd" clip-rule="evenodd" d="M32.677 14.3209H30.9723C30.7525 14.3214 30.5415 14.4052 30.3815 14.5556L28.01 16.7806L25.7338 14.5652C25.5729 14.4086 25.3565 14.3209 25.132 14.3209H23.3232C22.136 14.3209 21.0037 14.8201 20.2029 15.696C19.4016 16.5725 19.0065 17.7453 19.113 18.9277V28.8369C19.1135 30.2993 20.2988 31.4846 21.7611 31.4855H21.792C22.1466 31.4812 22.4969 31.4041 22.8202 31.2591L23.2755 49.1778C23.3141 50.2807 23.9978 51.2574 25.0202 51.6713C26.0427 52.0856 27.213 51.8601 28.0085 51.096C28.805 51.8616 29.9778 52.0861 31.0012 51.6698C32.0241 51.253 32.7064 50.273 32.742 49.1686L33.1959 31.2735C34.015 31.6224 34.9541 31.5371 35.6966 31.0466C36.4391 30.5561 36.8857 29.7254 36.8857 28.8355V18.9281C36.9927 17.7457 36.5976 16.573 35.7968 15.6965C34.996 14.8206 33.8637 14.3214 32.677 14.3209ZM29.944 50.1492C29.3523 50.1487 28.8724 49.6688 28.872 49.0771V31.1271H27.1451V49.0771C27.1446 49.6596 26.6792 50.1352 26.0966 50.1482C25.5141 50.1612 25.0279 49.7068 25.0014 49.1248L24.4873 28.8726H31.5302L31.0156 49.1152C30.9973 49.6929 30.5222 50.1511 29.944 50.1492ZM35.1589 18.8867C35.1589 18.8578 35.1603 18.8284 35.1637 18.7995C35.2355 18.0965 35.0056 17.3959 34.532 16.8717C34.0579 16.3475 33.3843 16.0483 32.6774 16.0483H31.3148L28.5911 18.6039C28.5868 18.6081 28.582 18.6121 28.5772 18.616C28.5733 18.6192 28.5695 18.6223 28.566 18.6256C28.5614 18.6299 28.5568 18.6337 28.5521 18.6375C28.549 18.6401 28.546 18.6426 28.5429 18.6453C28.4826 18.694 28.4162 18.734 28.3453 18.7648C28.3424 18.7662 28.3391 18.7687 28.3362 18.7696C28.3342 18.7706 28.3323 18.7711 28.3304 18.7717C28.3294 18.7719 28.3285 18.7722 28.3275 18.7725C28.2909 18.7879 28.2533 18.8005 28.2152 18.8106L28.2114 18.8111C28.1762 18.8197 28.1406 18.8265 28.1039 18.8303C28.0953 18.8318 28.0866 18.8327 28.0779 18.8332C28.0413 18.8371 28.0047 18.838 27.9681 18.8371C27.9665 18.8369 27.9649 18.8367 27.9634 18.8365C27.9599 18.8361 27.9564 18.8356 27.9531 18.8356C27.9204 18.8337 27.8876 18.8303 27.8553 18.8245L27.8298 18.8202C27.7932 18.813 27.7575 18.8033 27.7223 18.7918C27.7194 18.7909 27.7168 18.7897 27.7143 18.7885L27.7132 18.7879C27.6804 18.7764 27.6481 18.7629 27.6168 18.747C27.6096 18.7436 27.6028 18.7402 27.5961 18.7364C27.5624 18.719 27.5296 18.6988 27.4983 18.6766C27.4959 18.6752 27.4939 18.6733 27.492 18.6718C27.4631 18.6506 27.4356 18.6275 27.4101 18.6029C27.4085 18.6017 27.4069 18.6005 27.4054 18.5994C27.4027 18.5974 27.4 18.5954 27.3976 18.5933L24.7812 16.0483H23.3232C22.6164 16.0478 21.9423 16.347 21.4682 16.8717C20.9946 17.3959 20.7642 18.0965 20.8356 18.8C20.8384 18.8289 20.8399 18.8578 20.8399 18.8872V28.8374C20.8404 29.0836 20.9387 29.3197 21.1141 29.4932C21.289 29.6662 21.5265 29.762 21.7727 29.7592C22.2902 29.7375 22.6959 29.3058 22.6843 28.7873V22.1761H24.4112V26.2818H24.4213L24.4435 27.1452H31.5736L31.5847 26.7058V22.1761H33.3115V26.3256H33.3216L33.3115 26.7265V28.8355C33.3115 29.3457 33.7249 29.7592 34.2352 29.7592C34.7455 29.7592 35.1589 29.3457 35.1589 28.8355V18.8867Z" fill="#586863"/>
<path fill-rule="evenodd" clip-rule="evenodd" d="M22.5518 4.07048V5.42539C22.5494 7.67215 20.7286 9.49346 18.4813 9.49587H18.4216C16.1743 9.49298 14.3535 7.67215 14.3511 5.42539V4.07048C14.3535 1.82324 16.1743 0.00240911 18.4216 0H18.4813C20.7286 0.00240911 22.5494 1.82324 22.5518 4.07048ZM18.4813 7.769C19.7755 7.76755 20.8235 6.71909 20.8249 5.42539V4.07048C20.8235 2.77678 19.7755 1.72832 18.4813 1.72687H18.4216C17.1279 1.72832 16.0794 2.77678 16.0779 4.07048V5.42539C16.0794 6.71909 17.1279 7.76755 18.4216 7.769H18.4813Z" fill="#586863"/>
<path fill-rule="evenodd" clip-rule="evenodd" d="M41.6481 4.07048V5.42539C41.6457 7.67215 39.8249 9.49346 37.5776 9.49587H37.5174C35.2706 9.49298 33.4498 7.67215 33.4469 5.42539V4.07048C33.4498 1.82324 35.2706 0.00240911 37.5174 0H37.5776C39.8249 0.00240911 41.6457 1.82324 41.6481 4.07048ZM37.5776 7.769C38.8713 7.76755 39.9198 6.71909 39.9212 5.42539V4.07048C39.9198 2.77678 38.8713 1.72832 37.5776 1.72687H37.5174C36.2237 1.72832 35.1752 2.77678 35.1738 4.07048V5.42539C35.1752 6.71909 36.2237 7.76755 37.5174 7.769H37.5776Z" fill="#586863"/>
</svg>
