<svg width="50" height="56" viewBox="0 0 50 56" fill="none" xmlns="http://www.w3.org/2000/svg">
<path fill-rule="evenodd" clip-rule="evenodd" d="M49.4065 18.5743L49.407 18.5747C49.8362 18.9046 49.9173 19.5222 49.5878 19.9514L47.9654 22.0664L48.0404 22.1239C48.5631 22.5251 48.6621 23.2766 48.2614 23.7993L47.3935 24.9306L48.1536 25.5138C48.6984 25.9317 48.8014 26.7147 48.3836 27.2592L41.4268 36.3281C41.2708 36.5314 41.0357 36.6381 40.7978 36.6381C40.6295 36.6381 40.4602 36.5848 40.3164 36.4744C39.9693 36.2082 39.9037 35.7111 40.1699 35.364L46.9205 26.5642L46.4294 26.1875L29.9485 47.6715L29.9477 47.6724L29.9466 47.6737L29.9449 47.676L29.9435 47.6779C29.9335 47.6906 29.9221 47.7023 29.9107 47.7141L29.9107 47.7141L29.8967 47.7288C29.8924 47.7334 29.8882 47.7381 29.8841 47.7429L29.8841 47.7429C29.8768 47.7513 29.8695 47.7597 29.8614 47.7673C29.8311 47.7956 29.7989 47.8216 29.7649 47.8447L23.729 51.9435L23.7287 51.9436L23.7242 51.9466C23.5634 52.0557 23.3783 52.1101 23.1936 52.1101C22.9908 52.1101 22.7884 52.0447 22.619 51.9148C22.2953 51.6665 22.1676 51.2409 22.3015 50.8554L22.303 50.851L22.3033 50.85L24.6985 43.958C24.7123 43.9181 24.7294 43.8796 24.7493 43.8425C24.7549 43.8321 24.7616 43.8223 24.7682 43.8125L24.7739 43.8042L24.7795 43.7956L24.7899 43.7787C24.7985 43.7645 24.8071 43.7502 24.8173 43.7369L24.8177 43.7365L24.818 43.736L43.1306 19.864C43.532 19.3411 44.2837 19.2422 44.8062 19.6432L44.8812 19.7007L46.5039 17.5855C46.8334 17.156 47.4511 17.0747 47.8808 17.4039L49.4065 18.5743ZM25.8354 45.5117L24.4314 49.5518L27.9697 47.1491L25.8354 45.5117ZM29.1751 46.0774L26.5583 44.07L44.1508 21.1368L46.7677 23.1442L29.1751 46.0774ZM46.1381 20.6649L46.7085 21.1024L47.9647 19.4648L47.3943 19.0273L46.1381 20.6649Z" fill="#586863"/>
<path d="M36.8898 24.9489H5.66694C5.22944 24.9489 4.87488 25.3035 4.87488 25.741C4.87488 26.1784 5.22944 26.533 5.66694 26.533H36.8898C37.3273 26.5329 37.6818 26.1784 37.6818 25.741C37.6818 25.3036 37.3273 24.9489 36.8898 24.9489Z" fill="#586863"/>
<path d="M29.3214 33.1217H5.66694C5.22944 33.1217 4.87488 33.4763 4.87488 33.9138C4.87488 34.3512 5.22944 34.7059 5.66694 34.7059H29.3214C29.7589 34.7058 30.1135 34.3512 30.1135 33.9138C30.1135 33.4764 29.7589 33.1217 29.3214 33.1217Z" fill="#586863"/>
<path d="M19.9584 49.4672H5.66694C5.22944 49.4672 4.87488 49.8217 4.87488 50.2592C4.87488 50.6967 5.22944 51.0513 5.66694 51.0513H19.9584C20.3959 51.0513 20.7504 50.6967 20.7504 50.2592C20.7504 49.8217 20.3959 49.4672 19.9584 49.4672Z" fill="#586863"/>
<path d="M36.8897 49.4672H29.8848C29.4473 49.4672 29.0928 49.8217 29.0928 50.2592C29.0928 50.6967 29.4473 51.0513 29.8848 51.0513H36.8897C37.3272 51.0513 37.6818 50.6967 37.6818 50.2592C37.6818 49.8217 37.3272 49.4672 36.8897 49.4672Z" fill="#586863"/>
<path fill-rule="evenodd" clip-rule="evenodd" d="M42.837 18.8027C42.837 19.2402 42.4824 19.5948 42.0449 19.5948C41.6074 19.5948 41.2528 19.2401 41.2528 18.8027V14.2309H30.2797C29.3568 14.2309 28.6061 13.4801 28.6061 12.5573V1.58402H1.64511C1.61141 1.58402 1.58402 1.61141 1.58402 1.645V54.0072C1.58402 54.0408 1.61152 54.0682 1.64511 54.0682H41.1916C41.2253 54.0682 41.2527 54.0408 41.2527 54.0072V38.1174C41.2527 37.6799 41.6073 37.3253 42.0448 37.3253C42.4823 37.3253 42.8368 37.6799 42.8368 38.1173V54.0072C42.8368 54.9142 42.0988 55.6522 41.1917 55.6522H1.64511C0.737935 55.6522 0 54.9142 0 54.0072V1.645C0 0.737935 0.738043 0 1.64511 0H29.398C29.4029 0 29.4078 0.000310906 29.4126 0.00062112C29.4163 0.000861175 29.4201 0.00110082 29.4238 0.00119565C29.4333 0.00152174 29.4426 0.00195652 29.4521 0.0026087C29.4849 0.00478261 29.5175 0.00847826 29.5495 0.0146739L29.553 0.0152174C29.5863 0.0218478 29.6188 0.031413 29.6509 0.0421739C29.6593 0.0451087 29.6676 0.0480435 29.676 0.0511957C29.7063 0.0625 29.736 0.0752174 29.7647 0.0902174L29.7702 0.0928261C29.8004 0.108804 29.8291 0.127609 29.8572 0.1475C29.8643 0.152609 29.8713 0.157826 29.8783 0.163152C29.9061 0.184457 29.933 0.206957 29.9582 0.231957L42.6051 12.879C42.6302 12.904 42.6526 12.9311 42.6739 12.9589C42.6791 12.9658 42.6843 12.9727 42.6893 12.9798C42.7093 13.0078 42.7282 13.0367 42.7442 13.067L42.7464 13.0716C42.7616 13.1007 42.7743 13.1307 42.7859 13.1613C42.7889 13.1695 42.7919 13.1775 42.7946 13.1858C42.8054 13.218 42.8151 13.2508 42.8217 13.2843L42.8218 13.2853C42.8284 13.3183 42.8321 13.3518 42.8343 13.3857C42.8349 13.3945 42.8353 13.4033 42.8357 13.4122C42.8358 13.4157 42.836 13.4193 42.8363 13.4228C42.8366 13.4282 42.837 13.4335 42.837 13.4389V18.8027ZM30.19 12.5572C30.19 12.6065 30.2302 12.6467 30.2796 12.6467H40.1327L30.1901 2.70413H30.19V12.5572Z" fill="#586863"/>
<path d="M19.5155 11.2926L12.8927 5.07107C12.5878 4.78466 12.113 4.78466 11.8082 5.07107L5.18538 11.2926C4.86647 11.5921 4.85082 12.0934 5.15027 12.4122C5.44984 12.7309 5.95092 12.7466 6.26984 12.4472L12.3504 6.73509L18.4309 12.4472C18.5839 12.5906 18.7787 12.6618 18.9731 12.6618C19.1842 12.6618 19.3947 12.578 19.5506 12.4122C19.8501 12.0934 19.8344 11.5921 19.5155 11.2926Z" fill="#586863"/>
<path fill-rule="evenodd" clip-rule="evenodd" d="M17.3009 12.3138L13.2471 8.50544C12.7445 8.03326 11.9568 8.03326 11.4542 8.50544L7.40013 12.3138C7.13774 12.5603 6.9873 12.9082 6.9873 13.268V18.8078C6.9873 19.5298 7.5747 20.1172 8.29665 20.1172H16.4045C17.1264 20.1172 17.7138 19.5298 17.7138 18.8078V13.268C17.7138 12.9082 17.5634 12.5603 17.3009 12.3138ZM12.9314 18.5332H11.7698V15.7875H12.9314V18.5332ZM14.5155 15.2857V18.5332H16.1298V13.387L12.3506 9.83663L8.57133 13.387V18.5332H10.1859V15.2857C10.1859 14.6889 10.6712 14.2035 11.268 14.2035H13.4334C14.03 14.2035 14.5155 14.6889 14.5155 15.2857Z" fill="#586863"/>
<path d="M22.2733 41.2945H13.4381C13.0006 41.2945 12.646 41.649 12.646 42.0865C12.646 42.524 13.0006 42.8786 13.4381 42.8786H22.2733C22.7108 42.8785 23.0653 42.5239 23.0653 42.0865C23.0653 41.6491 22.7108 41.2945 22.2733 41.2945Z" fill="#586863"/>
<path d="M8.51728 41.2943H5.76423C5.32673 41.2943 4.97217 41.6489 4.97217 42.0864C4.97217 42.5239 5.32684 42.8785 5.76423 42.8785H8.51728C8.95478 42.8785 9.30934 42.5239 9.30934 42.0864C9.30934 41.6489 8.95478 41.2943 8.51728 41.2943Z" fill="#586863"/>
</svg>
