<svg width="56" height="56" viewBox="0 0 56 56" fill="none" xmlns="http://www.w3.org/2000/svg">
<path d="M28.9032 34.1943C30.4568 33.7906 31.6129 32.3888 31.6129 30.7097C31.6129 28.7172 29.9925 27.0968 28 27.0968C27.0037 27.0968 26.1935 26.2866 26.1935 25.2903C26.1935 24.2941 27.0037 23.4839 28 23.4839C28.9962 23.4839 29.8064 24.2941 29.8064 25.2903H31.6129C31.6129 23.6112 30.4568 22.2094 28.9032 21.8057V19.871H27.0968V21.8057C25.5432 22.2094 24.3871 23.6112 24.3871 25.2903C24.3871 27.2828 26.0075 28.9032 28 28.9032C28.9962 28.9032 29.8064 29.7134 29.8064 30.7097C29.8064 31.7059 28.9962 32.5161 28 32.5161C27.0037 32.5161 26.1935 31.7059 26.1935 30.7097H24.3871C24.3871 32.3888 25.5432 33.7906 27.0968 34.1943V36.129H28.9032V34.1943Z" fill="#586863"/>
<path d="M28 16.2581C21.5257 16.2581 16.2581 21.5257 16.2581 28H18.0645C18.0645 22.5219 22.5219 18.0645 28 18.0645V16.2581Z" fill="#586863"/>
<path d="M37.9355 28C37.9355 33.4781 33.4781 37.9355 28 37.9355V39.7419C34.4743 39.7419 39.7419 34.4743 39.7419 28H37.9355Z" fill="#586863"/>
<path d="M18.6065 6.4707C15.7749 7.70722 13.2467 9.46761 11.0925 11.7022L12.3923 12.9568C14.3821 10.8938 16.716 9.26799 19.3299 8.12541L18.6065 6.4707Z" fill="#586863"/>
<path d="M22.3648 5.19716C21.7289 5.35342 21.0966 5.53767 20.4843 5.74451L21.0641 7.45613C21.6277 7.26555 22.2112 7.09574 22.7965 6.95032L22.3648 5.19716Z" fill="#586863"/>
<path d="M26.1231 4.59019C25.5062 4.63897 24.8739 4.71484 24.2444 4.8151L24.5298 6.59897C25.1115 6.50503 25.695 6.43548 26.264 6.39213L26.1231 4.59019Z" fill="#586863"/>
<path d="M28 1.80645C34.9973 1.80645 41.5746 4.53148 46.5215 9.47845C46.8603 9.81716 47.46 9.81716 47.7987 9.47845L49.6774 7.59974V14.4516H42.8256L44.6058 12.6714C44.959 12.3182 44.959 11.7474 44.6058 11.3942C40.1701 6.95845 34.2729 4.51613 28 4.51613V6.32258C33.488 6.32258 38.6653 8.34852 42.6765 12.0463L40.0066 14.7163C39.7483 14.9746 39.6706 15.363 39.8106 15.7008C39.9506 16.0386 40.2803 16.2581 40.6452 16.2581H50.5806C51.0792 16.2581 51.4839 15.8543 51.4839 15.3548V5.41935C51.4839 5.05445 51.2635 4.72387 50.9266 4.58477C50.587 4.44297 50.2004 4.52155 49.9421 4.78077L47.1502 7.57265C41.9431 2.68258 35.1779 0 28 0C12.5612 0 0 12.5603 0 28H1.80645C1.80645 13.5574 13.5565 1.80645 28 1.80645Z" fill="#586863"/>
<path d="M44.9084 44.2978L43.6087 43.0432C41.6189 45.1062 39.285 46.732 36.671 47.8746L37.3945 49.5293C40.2261 48.2928 42.7533 46.5324 44.9084 44.2978V44.2978Z" fill="#586863"/>
<path d="M33.6352 50.8028C34.2711 50.6466 34.9034 50.4623 35.5157 50.2555L34.9359 48.5439C34.3723 48.7344 33.7888 48.9043 33.2035 49.0497L33.6352 50.8028Z" fill="#586863"/>
<path d="M29.8769 51.4098C30.4938 51.361 31.126 51.2852 31.7556 51.1849L31.4702 49.401C30.8885 49.495 30.305 49.5645 29.736 49.6079L29.8769 51.4098Z" fill="#586863"/>
<path d="M54.1935 28C54.1935 42.4426 42.4435 54.1935 28 54.1935C21.0027 54.1935 14.4254 51.4685 9.47844 46.5215C9.13973 46.1828 8.53998 46.1828 8.20127 46.5215L6.32256 48.4003V41.5484H13.1744L11.3942 43.3286C11.041 43.6818 11.041 44.2526 11.3942 44.6058C15.8299 49.0415 21.7271 51.4839 28 51.4839V49.6774C22.512 49.6774 17.3347 47.6515 13.3235 43.9537L15.9934 41.2837C16.2517 41.0254 16.3294 40.637 16.1894 40.2992C16.0494 39.9614 15.7197 39.7419 15.3548 39.7419H5.41934C4.92076 39.7419 4.51611 40.1457 4.51611 40.6452V50.5806C4.51611 50.9455 4.7365 51.2761 5.0734 51.4152C5.41121 51.5561 5.7996 51.4775 6.05792 51.2192L8.84979 48.4274C14.0569 53.3174 20.822 56 28 56C43.4388 56 56 43.4397 56 28L54.1935 28Z" fill="#586863"/>
<path fill-rule="evenodd" clip-rule="evenodd" d="M28 12.6452C36.4668 12.6452 43.3548 19.5332 43.3548 28C43.3548 36.4668 36.4668 43.3548 28 43.3548C19.5331 43.3548 12.6451 36.4668 12.6451 28C12.6451 19.5332 19.5331 12.6452 28 12.6452ZM14.4516 28C14.4516 35.4706 20.5294 41.5484 28 41.5484C35.4706 41.5484 41.5484 35.4706 41.5484 28C41.5484 20.5294 35.4706 14.4516 28 14.4516C20.5294 14.4516 14.4516 20.5294 14.4516 28Z" fill="#586863"/>
</svg>
