<svg width="62" height="56" viewBox="0 0 62 56" fill="none" xmlns="http://www.w3.org/2000/svg">
<path fill-rule="evenodd" clip-rule="evenodd" d="M60.3551 35.3243C59.1947 33.6191 56.858 33.1677 55.1475 34.3173L47.3623 39.5274L47.3397 23.3101L50.0443 25.8438C50.6195 26.3824 51.3694 26.6789 52.1567 26.6789H52.1614C53.0114 26.6777 53.8321 26.3214 54.4131 25.7013C54.9775 25.0987 55.2735 24.3126 55.2466 23.4874C55.2197 22.6621 54.873 21.8968 54.2704 21.3324L49.1429 16.5291C48.7918 16.2002 48.2408 16.2182 47.9121 16.5692C47.5833 16.9202 47.6013 17.4712 47.9522 17.8L53.0798 22.6034C53.3429 22.8498 53.4942 23.1839 53.506 23.5441C53.5177 23.9043 53.3885 24.2475 53.142 24.5105C52.8846 24.7853 52.5355 24.9368 52.1588 24.9373H52.1567C51.8132 24.9373 51.4859 24.8079 51.2349 24.5727L51.2348 24.5726L30.8743 5.49933C30.5388 5.18513 30.0167 5.18561 29.682 5.501L9.37452 24.6313C9.11227 24.8784 8.76936 25.0078 8.40906 24.9978C8.04875 24.9871 7.7143 24.8366 7.46718 24.5741C7.22007 24.3119 7.08984 23.969 7.10068 23.6088C7.1114 23.2485 7.26189 22.914 7.52414 22.6669L29.3495 2.1068C29.8668 1.61936 30.6785 1.61817 31.1971 2.1043L43.966 14.0659C44.3169 14.3946 44.8679 14.3768 45.1968 14.0257C45.5255 13.6747 45.5075 13.1238 45.1566 12.7949L32.3879 0.833338C31.1996 -0.279989 29.3405 -0.277487 28.1554 0.839177L21.1686 7.42096L21.1667 6.24699C21.1662 5.87691 21.0216 5.52924 20.7596 5.26806C20.498 5.00724 20.1508 4.86367 19.7815 4.86367H19.7794L14.7815 4.8707C14.4114 4.87118 14.0639 5.01582 13.8026 5.27783C13.5414 5.53984 13.3977 5.88787 13.3983 6.25807L13.4121 14.728L6.33003 21.3995C5.72904 21.9656 5.38458 22.7318 5.35991 23.5571C5.33525 24.3823 5.63348 25.1677 6.19956 25.7685C6.76551 26.3695 7.53176 26.714 8.35711 26.7387C8.38868 26.7397 8.42026 26.7401 8.45183 26.7401C9.24238 26.7401 9.991 26.4434 10.5687 25.8989L13.2674 23.3568L13.2781 31.017C12.405 30.8898 11.5216 30.8231 10.6342 30.8231H9.1442V30.301C9.1442 28.5482 7.71811 27.1221 5.96531 27.1221H3.17889C1.42609 27.122 0 28.548 0 30.3009V43.9456C0 44.4265 0.389855 44.8163 0.87074 44.8163C1.35163 44.8163 1.74148 44.4265 1.74148 43.9456V30.3009C1.74148 29.5083 2.38631 28.8635 3.17889 28.8635H5.96519C6.75777 28.8635 7.4026 29.5083 7.4026 30.3009V31.6937V49.5418V50.9209C7.4026 51.7135 6.75777 52.3583 5.96519 52.3583H3.17889C2.38631 52.3583 1.74148 51.7135 1.74148 50.9209V49.3973C1.74148 48.9164 1.35163 48.5265 0.87074 48.5265C0.389855 48.5265 0 48.9164 0 49.3973V50.9209C0 52.6737 1.42609 54.0998 3.17889 54.0998H5.96519C7.71799 54.0998 9.14408 52.6738 9.14408 50.9209V50.8026L21.8959 55.6315C21.9195 55.6404 21.9434 55.6483 21.9677 55.6551C22.5221 55.8116 23.0763 55.8902 23.6234 55.8902C23.9194 55.8902 24.2133 55.8672 24.5043 55.8212L43.2442 53.1198L43.2573 53.1178C44.8505 52.8634 46.3536 52.1899 47.6038 51.1702C47.6147 51.1614 47.6254 51.1522 47.6357 51.1428L59.7426 40.254C61.1525 39.0023 61.4157 36.883 60.3551 35.3243ZM19.4257 6.60575L19.4297 9.05902L15.1509 13.0898L15.1403 6.61159L19.4257 6.60575ZM45.5958 21.6764L30.2806 7.32946L15.0066 21.7182L15.02 31.3548C15.0523 31.3627 15.0843 31.3714 15.1162 31.3801L15.1165 31.3802C15.1414 31.387 15.1663 31.3938 15.1913 31.4002C15.3131 31.4314 15.4349 31.463 15.5561 31.4967C15.6468 31.5218 15.7369 31.5483 15.827 31.5749L15.8271 31.5749L15.8275 31.575L15.8335 31.5767C15.9409 31.6086 16.0483 31.6407 16.1552 31.6744C16.2555 31.706 16.3553 31.7385 16.4549 31.7718C16.5531 31.8046 16.6508 31.8382 16.7484 31.8726C16.8524 31.9092 16.9562 31.9465 17.0595 31.9851C17.1526 32.0199 17.2453 32.0558 17.3378 32.0921C17.4422 32.1329 17.5465 32.174 17.6501 32.2168C17.7331 32.251 17.8156 32.2867 17.898 32.3223L17.927 32.3349L17.9689 32.353C18.0557 32.3905 18.1426 32.428 18.2288 32.4671C18.3101 32.5041 18.3907 32.5424 18.4713 32.5808L18.5222 32.605L18.5934 32.6387C18.6617 32.671 18.73 32.7033 18.7978 32.7369C18.8985 32.7868 18.9981 32.8389 19.0977 32.8909L19.098 32.8911L19.139 32.9125C19.1549 32.9208 19.1709 32.9291 19.1868 32.9373C19.1977 32.9429 19.2085 32.9484 19.2194 32.954L19.2198 32.9542C19.2663 32.9781 19.3128 33.002 19.3588 33.0268C19.5453 33.1273 19.7302 33.2308 19.9134 33.3379C21.3809 34.1964 22.9506 34.817 24.5945 35.1928L24.5807 25.3295C24.5801 24.9087 24.7434 24.5126 25.0407 24.2146C25.3379 23.9165 25.7334 23.7521 26.1544 23.7515L34.4536 23.7398H34.4557C35.3237 23.7398 36.0305 24.4453 36.0317 25.3134L36.0474 36.626C38.4315 37.0949 40.2345 39.0595 40.4774 41.5018L40.5464 42.1953L43.1571 42.3417L45.6224 40.6918L45.5958 21.6764ZM34.3057 36.4081L27.0227 35.5697L26.3366 35.4907L26.3225 25.4928L34.2905 25.4816L34.3057 36.4081ZM46.4874 49.8337L58.5823 38.9556C59.3436 38.2796 59.485 37.1411 58.9152 36.304C58.2919 35.388 57.0368 35.1455 56.1174 35.7635L46.9784 41.8797L46.978 41.88L43.8835 43.951C43.8459 43.9762 43.8063 43.9979 43.7657 44.0167C43.7569 44.0208 43.7479 44.024 43.7389 44.0273C43.7332 44.0293 43.7275 44.0314 43.7218 44.0336C43.6948 44.0445 43.668 44.0553 43.6401 44.0633C43.6279 44.0669 43.6155 44.0694 43.603 44.0719C43.5972 44.0731 43.5914 44.0743 43.5856 44.0756L43.5848 44.0758C43.5596 44.0813 43.5345 44.0868 43.5088 44.0901C43.4937 44.092 43.4786 44.0928 43.4635 44.0937C43.4592 44.0939 43.4549 44.0941 43.4506 44.0944C43.4335 44.0955 43.4164 44.0982 43.3992 44.0982C43.3879 44.0982 43.3767 44.0981 43.3654 44.0976C43.3604 44.0974 43.3554 44.0972 43.3504 44.0969L39.7048 43.8923C39.7025 43.8922 39.7002 43.8919 39.6979 43.8916C39.6957 43.8913 39.6935 43.8911 39.6912 43.8909C39.689 43.8907 39.6867 43.8907 39.6844 43.8906C39.6822 43.8905 39.6799 43.8905 39.6775 43.8903L20.3466 42.1966C19.8676 42.1547 19.5131 41.7323 19.5552 41.2532C19.5971 40.7742 20.0199 40.42 20.4986 40.4618L38.7832 42.0638L38.7445 41.6741C38.7228 41.4569 38.6833 41.2451 38.627 41.0404C38.2478 39.6584 37.1142 38.5971 35.678 38.3274C35.6247 38.3174 35.5711 38.3084 35.5171 38.3007L25.7611 37.1775C25.7536 37.1766 25.7462 37.1757 25.7387 37.1746C23.3619 36.8382 21.1062 36.0532 19.034 34.8411C18.8905 34.7571 18.7455 34.676 18.5996 34.5966C18.5883 34.5904 18.5769 34.5842 18.5656 34.578C18.5497 34.5694 18.5338 34.5607 18.5179 34.5521C18.3734 34.4744 18.228 34.3985 18.0814 34.3253C18.0638 34.3165 18.0461 34.3079 18.0284 34.2992C17.8784 34.2247 17.7275 34.1523 17.5754 34.0824L17.5628 34.0765C17.4055 34.0045 17.2472 33.9353 17.0879 33.8683L17.0357 33.8464C16.7161 33.7132 16.3925 33.5901 16.0657 33.4773L16.0172 33.4604C15.8603 33.4067 15.7025 33.3556 15.5441 33.3067C15.5294 33.3021 15.5146 33.2977 15.4998 33.2932C15.4879 33.2896 15.4759 33.286 15.464 33.2824C15.315 33.2372 15.1656 33.194 15.0156 33.153L14.9764 33.142C14.8268 33.1015 14.6764 33.0641 14.5257 33.0277C14.4802 33.0168 14.4347 33.0059 14.389 32.9953C13.1623 32.7109 11.9025 32.5645 10.6342 32.5645H9.1442V48.9403L22.4759 53.9889C23.0741 54.1531 23.6651 54.191 24.2326 54.1011L24.2456 54.0991L24.2573 54.0973L42.9891 51.3972C44.2705 51.1915 45.4795 50.6509 46.4874 49.8337Z" fill="#586863"/>
</svg>
